<svg xmlns="http://www.w3.org/2000/svg" width="360" height="640" fill="none" viewBox="0 0 360 640"><g clip-path="url(#clip0_110_58)"><rect width="360" height="640" fill="#1A73E8"/><path fill="#FBBC04" d="M0 240V119H239V240H0Z"/><path fill="#86B3FF" d="M-1 240V361H238V240H-1Z"/><path fill="#86B3FF" d="M-2 480V601H237V480H-2Z"/><path fill="#E84C40" d="M8.88557 121.259L-0.636871 120L-2 240H120C120 230.261 118.78 220.56 116.368 211.123L116.291 210.823C114.226 202.741 111.317 194.899 107.612 187.425L107.448 187.095C104.01 180.158 99.9224 173.563 95.24 167.398L92.1736 163.36C87.1199 156.706 81.1938 150.762 74.5546 145.689C66.7334 139.712 58.0141 135.013 48.7213 131.766L39.5272 128.555C29.5892 125.083 19.3217 122.638 8.88557 121.259Z"/><path fill="#2D8DFE" d="M7.88559 358.741L-1.63687 360L-3 240H119C119 249.739 117.78 259.44 115.368 268.877L115.291 269.177C113.226 277.259 110.317 285.101 106.612 292.575L106.448 292.905C103.01 299.842 98.9224 306.437 94.24 312.602L91.1736 316.64C86.1199 323.294 80.1938 329.238 73.5546 334.311C65.7334 340.288 57.0141 344.987 47.7213 348.234L38.5272 351.445C28.5892 354.917 18.3218 357.362 7.88559 358.741Z"/><path fill="#2D8DFE" d="M6.88559 598.741L-2.63687 600L-4 480H118C118 489.739 116.78 499.44 114.368 508.877L114.291 509.177C112.226 517.259 109.317 525.101 105.612 532.575L105.448 532.905C102.01 539.842 97.9224 546.437 93.24 552.602L90.1736 556.64C85.1199 563.294 79.1938 569.238 72.5546 574.311C64.7334 580.288 56.0141 584.987 46.7213 588.234L37.5272 591.445C27.5892 594.917 17.3218 597.362 6.88559 598.741Z"/><path fill="#2D8DFE" d="M239 119V0.668539V0H118.829H31.5534H0C-3.90623 0.373067 -6.81647 3.77096 -6.58475 7.68812L0 119H2.68539H239Z"/><path fill="#E84C40" d="M360 361V479.331V480H239.079H151.26H119.509C118.679 480 118.009 479.321 118.019 478.491L119.509 361H122.211H360Z"/><path fill="#E84C40" d="M237 601V719.331V720H116.829H39.3597C32.9155 720 26.5645 718.46 20.8355 715.51C13.8214 711.897 8.01678 706.312 4.13634 699.442L3.65461 698.589C-0.0521445 692.027 -2 684.618 -2 677.081V601H0.685393H237Z"/><path fill="#86B3FF" d="M237.444 14.3395L239 0H119.499L2 119H136.856L150.148 115.147C158.183 112.818 165.989 109.762 173.469 106.016L175.01 105.245C181.605 101.943 187.88 98.0356 193.753 93.5737C200.752 88.2562 207.143 82.181 212.807 75.4587L213.297 74.8764C219.267 67.7912 224.062 59.7942 227.498 51.1903L229.538 46.0846C233.602 35.9108 236.261 25.231 237.444 14.3395Z"/><path fill="#FBBC04" d="M358.444 465.66L360 480H240.499L119.5 361H257.856L271.148 364.853C279.183 367.182 286.989 370.238 294.469 373.984L296.01 374.755C302.605 378.057 308.88 381.964 314.753 386.426C321.752 391.744 328.143 397.819 333.807 404.541L334.297 405.124C340.267 412.209 345.062 420.206 348.498 428.81L350.538 433.915C354.602 444.089 357.261 454.769 358.444 465.66Z"/><path fill="#FBBC04" d="M235.444 705.66L237 720H117.499L0 601H134.856L148.148 604.853C156.183 607.182 163.989 610.238 171.469 613.984L173.01 614.755C179.605 618.057 185.88 621.964 191.753 626.426C198.752 631.744 205.143 637.819 210.807 644.541L211.297 645.124C217.267 652.209 222.062 660.206 225.498 668.81L227.538 673.915C231.602 684.089 234.261 694.769 235.444 705.66Z"/><circle cx="299.5" cy="59.5" r="59.5" fill="#3EAB59"/><circle r="59.5" fill="#2D8DFE" transform="matrix(1 0 0 -1 297.5 660.5)"/><path fill="#3EAB59" d="M121.783 134.23L120 119H239V240H238.555C228.58 240 218.642 238.786 208.96 236.385L207.878 236.117C199.964 234.154 192.286 231.338 184.979 227.719L183.667 227.069C174.442 222.499 165.954 216.572 158.487 209.485C152.571 203.871 147.343 197.574 142.913 190.727L141.11 187.94C135.573 179.383 131.097 170.184 127.779 160.546C124.843 152.015 122.832 143.192 121.783 134.23Z"/><path fill="#FF5D00" d="M120.96 346.353L119.5 361H238V240H237.554C227.579 240 217.642 241.214 207.96 243.615L206.878 243.883C198.964 245.846 191.286 248.662 183.979 252.281L182.667 252.931C173.442 257.501 164.954 263.428 157.486 270.515C151.571 276.129 146.343 282.426 141.913 289.273L139.805 292.531C134.47 300.775 130.158 309.638 126.962 318.923C123.905 327.803 121.891 337.008 120.96 346.353Z"/><path fill="#FF5D00" d="M119.783 585.77L118 601H237V480H236.555C226.58 480 216.642 481.214 206.96 483.615L205.878 483.883C197.964 485.846 190.286 488.662 182.979 492.281L181.667 492.931C172.442 497.501 163.954 503.428 156.487 510.515C150.571 516.129 145.343 522.426 140.913 529.273L139.11 532.06C133.573 540.617 129.097 549.816 125.779 559.454C122.843 567.985 120.832 576.808 119.783 585.77Z"/><rect width="121" height="121" x="239" y="119" fill="#FBBC04"/><rect width="121" height="121" fill="#3EAB59" transform="matrix(1 0 0 -1 238 361)"/><rect width="123" height="121" fill="#3EAB59" transform="matrix(1 0 0 -1 237 601)"/><circle r="59.5" fill="#FBBC04" transform="matrix(1 0 0 -1 59.5 420.5)"/></g><defs><clipPath id="clip0_110_58"><rect width="360" height="640" fill="#fff"/></clipPath></defs></svg>