<svg width="36" height="35" viewBox="0 0 36 35" fill="none" xmlns="http://www.w3.org/2000/svg">
<path d="M19.1042 25.6385C21.461 25.6385 21.4651 21.9361 19.1042 21.9361C16.7434 21.9361 16.7393 25.6385 19.1042 25.6385Z" fill="#FBBC04"/>
<path d="M23.3952 22.5208C25.752 22.5208 25.7561 18.8184 23.3952 18.8184C21.0344 18.8184 21.0303 22.5208 23.3952 22.5208Z" fill="#FBBC04"/>
<path d="M23.5671 18.5323C25.9239 18.5323 25.928 14.83 23.5671 14.83C21.2062 14.83 21.2021 18.5323 23.5671 18.5323Z" fill="#FBBC04"/>
<path d="M17.3884 15.2405C19.7451 15.2405 19.7493 11.5382 17.3884 11.5382C15.0275 11.5382 15.0234 15.2405 17.3884 15.2405Z" fill="#FBBC04"/>
<path d="M16.5299 10.2861C16.6185 10.2765 16.7006 10.2341 16.7602 10.1672C16.8198 10.1002 16.8527 10.0134 16.8527 9.92332C16.8527 9.83328 16.8198 9.74645 16.7602 9.67948C16.7006 9.61251 16.6185 9.57013 16.5299 9.56055C16.4412 9.57013 16.3592 9.61251 16.2996 9.67948C16.24 9.74645 16.207 9.83328 16.207 9.92332C16.207 10.0134 16.24 10.1002 16.2996 10.1672C16.3592 10.2341 16.4412 10.2765 16.5299 10.2861Z" fill="#FBBC04"/>
<path d="M23.3785 4.02984V3.85989C23.3865 3.71595 23.3552 3.57255 23.2881 3.4453C23.2457 3.31938 23.1739 3.2056 23.0787 3.1136L22.8693 2.95196C22.7121 2.86009 22.5337 2.81145 22.352 2.81096H22.1795L21.8675 2.85246L21.5842 2.97261C21.4486 3.04557 21.3341 3.15269 21.2516 3.28355C21.1565 3.40767 21.0868 3.54976 21.0466 3.70138C21.0064 3.85301 20.9966 4.01117 21.0176 4.16669C21.0175 4.27189 21.0459 4.37512 21.0997 4.46518C21.1449 4.61327 21.2285 4.74638 21.342 4.85073L21.5842 5.03727L21.8675 5.15752L22.1795 5.20317L22.4957 5.15752L22.779 5.03727C22.9127 4.96359 23.0268 4.85834 23.1116 4.73048C23.1845 4.65713 23.2369 4.56562 23.2635 4.46518C23.3369 4.32346 23.3723 4.16476 23.3661 4.00494L23.3785 4.02984Z" fill="#FBBC04"/>
<path d="M25.826 1.35157L25.6617 1.45107L25.596 1.49257L25.3415 1.68742C25.2205 1.80013 25.1313 1.94318 25.0828 2.10201C25.0458 2.17745 25.0169 2.2566 24.9966 2.33826C24.9451 2.5409 24.9451 2.75346 24.9966 2.9561C25.1021 3.25903 25.312 3.51357 25.5878 3.67334C25.7378 3.76158 25.9041 3.81797 26.0764 3.83914C26.1552 3.85299 26.2358 3.85299 26.3146 3.83914L26.4993 3.81839C26.733 3.81687 26.9622 3.75403 27.1645 3.63599C27.3582 3.51992 27.5193 3.35584 27.6325 3.15925C27.8074 2.85004 27.856 2.48408 27.768 2.13926C27.6713 1.80766 27.4563 1.52408 27.1645 1.34327C26.9627 1.22614 26.7341 1.16452 26.5014 1.16452C26.2687 1.16452 26.04 1.22614 25.8383 1.34327L25.826 1.35157Z" fill="#FBBC04"/>
<path d="M26.7047 5.41043C26.6841 5.57212 26.6595 5.72963 26.6431 5.89132C26.6363 6.14364 26.6982 6.39302 26.822 6.61231C26.9458 6.8316 27.1267 7.0124 27.3452 7.1351C27.4547 7.19374 27.5687 7.24369 27.686 7.2844C27.808 7.30801 27.9314 7.32319 28.0555 7.32995L28.4332 7.28025C28.613 7.23878 28.7787 7.15006 28.9136 7.02316C29.0176 6.961 29.1049 6.87425 29.1682 6.77031C29.291 6.63263 29.3771 6.46566 29.4186 6.28517C29.4843 6.13177 29.5377 5.97427 29.5993 5.82087C29.6532 5.62915 29.6675 5.42832 29.6414 5.23077C29.6153 5.03322 29.5492 4.84316 29.4474 4.67244C29.3358 4.47725 29.1803 4.31138 28.9934 4.18821C28.8065 4.06504 28.5935 3.98804 28.3716 3.9635C28.1806 3.93415 27.9857 3.94512 27.7991 3.99579C27.6125 4.04646 27.4384 4.13571 27.2877 4.25785C27.1274 4.36087 26.996 4.5036 26.9059 4.67244C26.7747 4.90039 26.7053 5.15924 26.7047 5.42288V5.41043Z" fill="#FBBC04"/>
<path d="M26.0186 8.39963C25.7533 8.47802 25.4962 8.58215 25.2508 8.71057C24.9112 8.89256 24.6417 9.18416 24.4855 9.53885C24.3292 9.89354 24.2951 10.2909 24.3886 10.6674C24.5082 11.0921 24.7864 11.4533 25.1646 11.6749C25.4542 11.8376 25.7817 11.9192 26.113 11.9112C26.3896 11.8994 26.6644 11.8619 26.9342 11.7993C27.1553 11.7486 27.3592 11.6399 27.5254 11.4842C27.715 11.3612 27.8705 11.1914 27.9771 10.9908C28.2101 10.5784 28.2735 10.0901 28.1536 9.63096C28.0272 9.18483 27.7323 8.80666 27.3324 8.57788C27.132 8.45866 26.9098 8.38147 26.6791 8.35084C26.4484 8.32021 26.214 8.3368 25.9898 8.39963H26.0186Z" fill="#FBBC04"/>
<path d="M19.0346 10.6841L18.6938 10.3399C18.6189 10.2856 18.5273 10.2598 18.4353 10.2672C18.3434 10.2745 18.2569 10.3146 18.1915 10.3802C18.126 10.4459 18.0856 10.5329 18.0776 10.6257C18.0696 10.7185 18.0945 10.8112 18.1478 10.8872L18.4885 11.2355C18.5182 11.2937 18.561 11.3439 18.6136 11.3822C18.6661 11.4205 18.7269 11.4456 18.791 11.4556C18.855 11.4656 18.9205 11.4601 18.982 11.4397C19.0436 11.4192 19.0994 11.3844 19.1451 11.338C19.1907 11.2915 19.2248 11.2349 19.2446 11.1726C19.2644 11.1103 19.2693 11.0441 19.259 10.9795C19.2486 10.915 19.2232 10.8538 19.1849 10.801C19.1467 10.7482 19.0966 10.7053 19.0387 10.6758L19.0346 10.6841Z" fill="#FBBC04"/>
<path d="M17.7368 7.74456C17.6327 7.51702 17.4942 7.30722 17.3262 7.12267C17.1588 6.97931 16.9739 6.85816 16.776 6.76203C16.6638 6.70051 16.5394 6.66507 16.4119 6.65828C16.2843 6.65149 16.1569 6.67349 16.0389 6.72275C15.9209 6.77201 15.8152 6.84728 15.7297 6.94301C15.6441 7.03873 15.5808 7.15254 15.5443 7.27612C15.4661 7.48821 15.4164 7.70985 15.3965 7.93526C15.4052 8.19445 15.4494 8.45121 15.5279 8.69815C15.5702 8.87294 15.6497 9.03633 15.7607 9.17712C15.8717 9.3179 16.0116 9.43271 16.1708 9.51357C16.33 9.59443 16.5047 9.6395 16.6828 9.64556C16.8609 9.65162 17.0382 9.61855 17.2025 9.54869C17.3667 9.47883 17.514 9.37381 17.6341 9.24088C17.7543 9.10796 17.8444 8.95034 17.8983 8.77882C17.9522 8.6073 17.9687 8.42597 17.9465 8.24742C17.9242 8.06887 17.8639 7.89728 17.7697 7.74456H17.7368Z" fill="#FBBC04"/>
<path d="M13.6766 1.53808L13.5042 1.36813C13.3955 1.25752 13.2479 1.19493 13.0936 1.19403C13.0163 1.19274 12.94 1.21123 12.8719 1.24788C12.7991 1.26957 12.7337 1.31121 12.683 1.36813C12.5761 1.47926 12.5158 1.62778 12.5146 1.78272C12.5178 1.93724 12.5778 2.08504 12.683 2.19732L12.8554 2.37141C12.9655 2.47939 13.1126 2.54035 13.266 2.54146C13.3431 2.54626 13.4199 2.52897 13.4877 2.49166C13.559 2.46929 13.6229 2.4277 13.6725 2.37141C13.7267 2.3173 13.7696 2.25267 13.7985 2.18143C13.8275 2.11019 13.8418 2.03381 13.8408 1.95682C13.8397 1.80188 13.7794 1.65336 13.6725 1.54223L13.6766 1.53808Z" fill="#FBBC04"/>
<path d="M14.2966 1.03233C16.6575 1.03233 16.6616 -2.66997 14.2966 -2.66997C11.9316 -2.66997 11.9357 1.03233 14.2966 1.03233Z" fill="#FBBC04"/>
<path d="M35.9216 7.26784C38.2825 7.26784 38.2866 3.56555 35.9216 3.56555C33.5566 3.56555 33.5607 7.26784 35.9216 7.26784Z" fill="#FBBC04"/>
<path d="M36.1723 9.48179L35.8274 9.82999C35.768 9.9034 35.7378 9.99657 35.7427 10.0912C35.7476 10.1859 35.7872 10.2753 35.8539 10.3421C35.9205 10.4088 36.0094 10.4482 36.1031 10.4524C36.1969 10.4566 36.2889 10.4254 36.3611 10.3648L36.7019 10.0165C36.7368 9.98148 36.7645 9.93985 36.7834 9.89396C36.8023 9.84806 36.812 9.79881 36.812 9.74911C36.812 9.69941 36.8023 9.65026 36.7834 9.60437C36.7645 9.55848 36.7368 9.51685 36.7019 9.48179C36.6308 9.41263 36.5359 9.37399 36.4371 9.37399C36.3383 9.37399 36.2434 9.41263 36.1723 9.48179Z" fill="#FBBC04"/>
<path d="M33.6921 19.7471C36.0489 19.7471 36.053 16.0447 33.6921 16.0447C31.3312 16.0447 31.3271 19.7471 33.6921 19.7471Z" fill="#FBBC04"/>
<path d="M30.4323 24.2537C32.7891 24.2537 32.7932 20.5514 30.4323 20.5514C28.0715 20.5514 28.0674 24.2537 30.4323 24.2537Z" fill="#FBBC04"/>
<path d="M9.66476 22.3465C12.0215 22.3465 12.0256 18.6443 9.66476 18.6443C7.3039 18.6443 7.2998 22.3465 9.66476 22.3465Z" fill="#FBBC04"/>
<path d="M8.29367 13.3333C10.6545 13.3333 10.6586 9.63101 8.29367 9.63101C5.9287 9.63101 5.93281 13.3333 8.29367 13.3333Z" fill="#FBBC04"/>
<path d="M8.29367 13.3333C10.6545 13.3333 10.6586 9.63101 8.29367 9.63101C5.9287 9.63101 5.93281 13.3333 8.29367 13.3333Z" fill="#FBBC04"/>
<path d="M10.696 9.86733C13.0528 9.86733 13.0569 6.16504 10.696 6.16504C8.33515 6.16504 8.33105 9.86733 10.696 9.86733Z" fill="#FBBC04"/>
<path d="M10.696 9.86733C13.0528 9.86733 13.0569 6.16504 10.696 6.16504C8.33515 6.16504 8.33105 9.86733 10.696 9.86733Z" fill="#FBBC04"/>
<path d="M7.27977 -0.281907L7.11554 -0.248809C6.88241 -0.19936 6.66848 -0.0826852 6.49967 0.0870366C6.3885 0.189195 6.3063 0.319488 6.26153 0.464382C6.18821 0.601657 6.15276 0.756231 6.15888 0.912074C6.16176 1.22262 6.28394 1.51991 6.49967 1.74126C6.66997 1.90894 6.88328 2.02527 7.11554 2.07711L7.27977 2.11031C7.48912 2.1681 7.70988 2.169 7.91969 2.11294C8.12951 2.05688 8.32093 1.94584 8.47457 1.79106C8.69913 1.55571 8.8268 1.243 8.83178 0.916224C8.84045 0.750394 8.80351 0.585415 8.72503 0.439482C8.67981 0.281135 8.59331 0.137952 8.47457 0.024888C8.32093 -0.129896 8.12951 -0.240929 7.91969 -0.296989C7.70988 -0.353049 7.48912 -0.352152 7.27977 -0.294357V-0.281907Z" fill="#FBBC04"/>
<path d="M28.6057 11.6377L28.4908 11.7331C28.2086 12.0173 27.9847 12.3549 27.832 12.7266C27.6792 13.0984 27.6006 13.4968 27.6006 13.8993C27.6006 14.3017 27.6792 14.7003 27.832 15.072C27.9847 15.4437 28.2086 15.7813 28.4908 16.0655C29.0781 16.6128 29.8396 16.9303 30.6381 16.961C31.4421 16.9599 32.2129 16.6367 32.781 16.0622C33.3491 15.4877 33.6682 14.7091 33.6682 13.8972V13.7645L33.5615 12.9644L33.2618 12.2472L32.7978 11.6377C32.5358 11.3525 32.2067 11.1386 31.8411 11.0158C31.1061 10.7097 30.281 10.7097 29.546 11.0158C29.1808 11.1396 28.852 11.3533 28.5893 11.6377H28.6057Z" fill="#FBBC04"/>
<path d="M36.0944 26.6791C38.4553 26.6791 38.4594 22.9767 36.0944 22.9767C33.7295 22.9767 33.7336 26.6791 36.0944 26.6791Z" fill="#FBBC04"/>
<path d="M30.2605 33.7852C32.6172 33.7852 32.6213 30.0829 30.2605 30.0829C27.8996 30.0829 27.8955 33.7852 30.2605 33.7852Z" fill="#FBBC04"/>
<path d="M28.3718 29.1045C30.7326 29.1045 30.7368 25.4022 28.3718 25.4022C26.0068 25.4022 26.0109 29.1045 28.3718 29.1045Z" fill="#FBBC04"/>
<path d="M20.6482 31.2023C23.009 31.2023 23.0131 27.5 20.6482 27.5C18.2832 27.5 18.2873 31.2023 20.6482 31.2023Z" fill="#FBBC04"/>
<path d="M11.7224 29.7969C14.0832 29.7969 14.0873 26.0945 11.7224 26.0945C9.35742 26.0945 9.36152 29.7969 11.7224 29.7969Z" fill="#FBBC04"/>
<path d="M16.0124 24.4237C18.3733 24.4237 18.3774 20.7255 16.0124 20.7255C13.6475 20.7255 13.6516 24.4237 16.0124 24.4237Z" fill="#FBBC04"/>
<path d="M16.8708 18.7065C19.2317 18.7065 19.2358 15.0041 16.8708 15.0041C14.5059 15.0041 14.51 18.7065 16.8708 18.7065Z" fill="#FBBC04"/>
<path d="M16.8708 18.7065C19.2317 18.7065 19.2358 15.0041 16.8708 15.0041C14.5059 15.0041 14.51 18.7065 16.8708 18.7065Z" fill="#FBBC04"/>
<path d="M14.6417 16.4884C14.8181 16.4884 14.9873 16.4176 15.112 16.2916C15.2368 16.1657 15.3069 15.9948 15.3069 15.8167C15.3069 15.6386 15.2368 15.4677 15.112 15.3418C14.9873 15.2158 14.8181 15.1451 14.6417 15.1451C14.4653 15.1451 14.2961 15.2158 14.1714 15.3418C14.0466 15.4677 13.9766 15.6386 13.9766 15.8167C13.9766 15.9948 14.0466 16.1657 14.1714 16.2916C14.2961 16.4176 14.4653 16.4884 14.6417 16.4884Z" fill="#FBBC04"/>
<path d="M11.8943 16.9734C14.2551 16.9734 14.2592 13.2711 11.8943 13.2711C9.52929 13.2711 9.5334 16.9734 11.8943 16.9734Z" fill="#FBBC04"/>
<path d="M11.0364 14.3367L10.5231 14.3656C10.4433 14.3588 10.3629 14.3689 10.2871 14.3951C10.2113 14.4213 10.1417 14.463 10.0827 14.5178C10.0237 14.5725 9.97657 14.639 9.94436 14.7131C9.91214 14.7872 9.89551 14.8672 9.89551 14.9481C9.89551 15.029 9.91214 15.1091 9.94436 15.1832C9.97657 15.2573 10.0237 15.3238 10.0827 15.3785C10.1417 15.4333 10.2113 15.4751 10.2871 15.5013C10.3629 15.5275 10.4433 15.5375 10.5231 15.5307L11.0364 15.5597C11.1968 15.5597 11.3508 15.4956 11.4646 15.3815C11.5784 15.2673 11.643 15.1123 11.644 14.9503C11.6419 14.7882 11.5772 14.6334 11.4637 14.5188C11.3502 14.4042 11.1969 14.3388 11.0364 14.3367Z" fill="#FBBC04"/>
<path d="M7.77609 17.1476C10.1369 17.1476 10.1411 13.4453 7.77609 13.4453C5.41113 13.4453 5.41523 17.1476 7.77609 17.1476Z" fill="#FBBC04"/>
<path d="M4.85726 15.8623C4.91497 15.8623 4.97032 15.8392 5.01113 15.798C5.05194 15.7568 5.07487 15.7009 5.07487 15.6426C5.07487 15.5843 5.05194 15.5284 5.01113 15.4872C4.97032 15.446 4.91497 15.4229 4.85726 15.4229C4.79954 15.4229 4.74419 15.446 4.70338 15.4872C4.66257 15.5284 4.63965 15.5843 4.63965 15.6426C4.63965 15.7009 4.66257 15.7568 4.70338 15.798C4.74419 15.8392 4.79954 15.8623 4.85726 15.8623Z" fill="#FBBC04"/>
<path d="M4.01957 12.5456V12.1973C4.01957 12.1918 4.01741 12.1866 4.01356 12.1827C4.00971 12.1789 4.00448 12.1767 3.99904 12.1767C3.9936 12.1767 3.98837 12.1789 3.98452 12.1827C3.98067 12.1866 3.97852 12.1918 3.97852 12.1973V12.5456C3.97852 12.5511 3.98067 12.5564 3.98452 12.5603C3.98837 12.5642 3.9936 12.5664 3.99904 12.5664C4.00448 12.5664 4.00971 12.5642 4.01356 12.5603C4.01741 12.5564 4.01957 12.5511 4.01957 12.5456Z" fill="#FBBC04"/>
<path d="M5.29199 7.413L5.39052 6.69981C5.44736 6.46165 5.41521 6.21072 5.3002 5.99502C5.17831 5.79227 4.98451 5.64402 4.75823 5.58042C4.52543 5.52216 4.27937 5.5564 4.07081 5.67598C3.86224 5.79555 3.70708 5.99135 3.63734 6.22307L3.3992 6.89476C3.36396 7.02207 3.35452 7.15519 3.37145 7.28627C3.38839 7.41735 3.43134 7.54362 3.49774 7.65754C3.56268 7.77001 3.64892 7.86844 3.75155 7.94723C3.85418 8.02602 3.97119 8.08366 4.09587 8.11677C4.22056 8.14989 4.35049 8.15787 4.47823 8.14026C4.60597 8.12264 4.72901 8.07979 4.84034 8.01414C4.95102 7.95078 5.04801 7.86565 5.12558 7.76382C5.20315 7.662 5.25973 7.54547 5.29199 7.4212V7.413Z" fill="#FBBC04"/>
<path d="M7.06253 4.15423L7.23497 3.98013C7.2671 3.94714 7.28493 3.9026 7.28454 3.85634C7.28416 3.81008 7.26559 3.7659 7.23292 3.73346C7.20025 3.70102 7.15616 3.68297 7.11035 3.68336C7.06454 3.68374 7.02075 3.7025 6.98863 3.73548L6.81618 3.90958C6.80027 3.92591 6.78771 3.94533 6.77921 3.96657C6.7707 3.9878 6.76642 4.01046 6.76661 4.03337C6.7668 4.05628 6.77146 4.07888 6.78032 4.09997C6.78917 4.12106 6.80206 4.14019 6.81823 4.15625C6.83441 4.17231 6.85356 4.18501 6.87459 4.1936C6.89562 4.20219 6.91812 4.20655 6.94081 4.20636C6.96349 4.20616 6.98592 4.20143 7.0068 4.19249C7.02769 4.18354 7.04662 4.17056 7.06253 4.15423Z" fill="#FBBC04"/>
<path d="M9.59945 5.04971L9.53787 4.91297C9.48233 4.81322 9.40111 4.73041 9.30281 4.67348C9.20451 4.61655 9.09278 4.5876 8.97947 4.58957C8.8643 4.58883 8.75097 4.61885 8.65101 4.67662C8.55384 4.73333 8.47314 4.81485 8.41698 4.91297L8.35538 5.04971C8.29084 5.16176 8.25684 5.28913 8.25684 5.41876C8.25684 5.54839 8.29084 5.67565 8.35538 5.7877C8.41925 5.89502 8.50954 5.98386 8.61746 6.04551C8.72538 6.10716 8.84727 6.13954 8.97126 6.13954C9.09526 6.13954 9.21714 6.10716 9.32506 6.04551C9.43299 5.98386 9.52327 5.89502 9.58714 5.7877C9.65169 5.67565 9.68569 5.54839 9.68569 5.41876C9.68569 5.28913 9.65169 5.16176 9.58714 5.04971H9.59945Z" fill="#FBBC04"/>
<path d="M7.41062 6.60442C7.28334 6.6293 7.16016 6.65425 7.03698 6.68742C6.87484 6.73615 6.71907 6.80435 6.57302 6.89057C6.44369 6.96596 6.34284 7.08256 6.28635 7.22216C6.22987 7.36176 6.22094 7.51637 6.26098 7.66165C6.30212 7.80526 6.38767 7.9318 6.50513 8.0228C6.62258 8.11381 6.76579 8.16449 6.91381 8.16745C7.08639 8.17006 7.25868 8.15202 7.42704 8.1136L7.79246 8.00995C7.88824 7.98875 7.97874 7.94806 8.05846 7.89041C8.13818 7.83276 8.20546 7.75935 8.25617 7.67461C8.30689 7.58987 8.34 7.49555 8.35348 7.39747C8.36697 7.2994 8.36054 7.19963 8.3346 7.10414C8.30866 7.00865 8.26374 6.91948 8.20258 6.84208C8.14143 6.76469 8.06531 6.70066 7.97887 6.65392C7.89243 6.60717 7.79748 6.57871 7.69979 6.57021C7.60209 6.5617 7.50371 6.5733 7.41062 6.60442Z" fill="#FBBC04"/>
<path d="M2.95578 9.69324C5.31253 9.69324 5.31663 5.995 2.95578 5.995C0.594919 5.995 0.590813 9.69324 2.95578 9.69324Z" fill="#FBBC04"/>
<path d="M1.81085 6.74133L1.64661 6.78283C1.81085 6.78283 1.82727 6.7621 1.69999 6.78283C1.6343 6.78283 1.26888 6.74966 1.57681 6.78283C1.19255 6.71023 0.795362 6.76394 0.443604 6.93618C0.274145 7.03852 0.142365 7.1939 0.0682672 7.37871C-0.00583107 7.56352 -0.0182037 7.76766 0.0330202 7.96021C0.361487 9.00499 1.4947 9.11282 2.4103 8.9304C2.69727 8.84901 2.94092 8.65667 3.08848 8.39515C3.23603 8.13363 3.2756 7.82394 3.19862 7.53317C3.11525 7.24519 2.92434 7.00119 2.66617 6.85267C2.40801 6.70415 2.10279 6.66276 1.81495 6.73718L1.81085 6.74133Z" fill="#FBBC04"/>
<path d="M2.37737 1.84909L2.24187 1.72885L2.02837 1.5589L1.77792 1.4511L1.49461 1.41375C1.35223 1.40766 1.21073 1.43919 1.08403 1.50505C0.998459 1.53326 0.92 1.57988 0.854103 1.6418C0.774669 1.68807 0.709336 1.75546 0.665231 1.83664C0.600391 1.90118 0.552426 1.98098 0.525634 2.06884C0.460408 2.19678 0.429278 2.33966 0.435305 2.48343V2.65753C0.434355 2.85909 0.488333 3.05707 0.591329 3.22972C0.689905 3.40182 0.831482 3.54478 1.00191 3.64432C1.17371 3.7459 1.36943 3.79883 1.56851 3.79766C1.86491 3.78754 2.14774 3.66985 2.36505 3.46607C2.50339 3.327 2.60381 3.15411 2.65657 2.96433C2.71031 2.77034 2.71162 2.56545 2.66036 2.37078C2.60909 2.17611 2.50712 1.9988 2.36505 1.85739L2.37737 1.84909Z" fill="#FBBC04"/>
<path d="M4.51632 1.20228C6.87308 1.20228 6.87718 -2.50002 4.51632 -2.50002C2.15547 -2.50002 2.15136 1.20228 4.51632 1.20228Z" fill="#FBBC04"/>
<path d="M12.0671 1.89887C14.428 1.89887 14.4321 -1.80353 12.0671 -1.80353C9.70214 -1.80353 9.70625 1.89887 12.0671 1.89887Z" fill="#FBBC04"/>
<path d="M12.0671 1.89887C14.428 1.89887 14.4321 -1.80353 12.0671 -1.80353C9.70214 -1.80353 9.70625 1.89887 12.0671 1.89887Z" fill="#FBBC04"/>
<path d="M16.7028 7.09375C19.0596 7.09375 19.0637 3.39551 16.7028 3.39551C14.342 3.39551 14.3379 7.09375 16.7028 7.09375Z" fill="#FBBC04"/>
<path d="M21.6784 8.30846C24.0352 8.30846 24.0393 4.60617 21.6784 4.60617C19.3176 4.60617 19.3135 8.30846 21.6784 8.30846Z" fill="#FBBC04"/>
<path d="M22.2083 3.2173L22.3438 3.15515C22.4903 3.0695 22.612 2.94652 22.6969 2.79856C22.7853 2.64723 22.832 2.47468 22.832 2.29894C22.832 2.1232 22.7853 1.95075 22.6969 1.79942C22.612 1.65147 22.4903 1.52849 22.3438 1.44283L22.2083 1.38068C22.0476 1.28562 21.8648 1.23549 21.6786 1.23553C21.5348 1.22646 21.3906 1.24723 21.2551 1.29657C21.1195 1.34591 20.9953 1.42275 20.8903 1.52239C20.7853 1.62203 20.7016 1.74239 20.6444 1.87595C20.5871 2.0095 20.5576 2.15342 20.5576 2.29894C20.5576 2.44446 20.5871 2.58848 20.6444 2.72204C20.7016 2.8556 20.7853 2.97586 20.8903 3.07549C20.9953 3.17513 21.1195 3.25208 21.2551 3.30142C21.3906 3.35075 21.5348 3.37152 21.6786 3.36245C21.8648 3.3625 22.0476 3.31237 22.2083 3.2173Z" fill="#FBBC04"/>
<path d="M22.0193 4.15008C24.3801 4.15008 24.3842 0.447784 22.0193 0.447784C19.6543 0.447784 19.6584 4.15008 22.0193 4.15008Z" fill="#FBBC04"/>
<path d="M23.7361 0.335838C26.0969 0.335838 26.101 -3.36646 23.7361 -3.36646C21.3711 -3.36646 21.3752 0.335838 23.7361 0.335838Z" fill="#FBBC04"/>
<path d="M38.4962 32.0316H36.9113C36.6285 32.0489 36.3628 32.1747 36.1686 32.3831C35.9744 32.5915 35.8662 32.8669 35.8662 33.1531C35.8662 33.4392 35.9744 33.7146 36.1686 33.923C36.3628 34.1314 36.6285 34.2571 36.9113 34.2745H38.4962C38.6477 34.2838 38.7995 34.2617 38.9423 34.2096C39.085 34.1574 39.2157 34.0763 39.3263 33.9712C39.4368 33.8662 39.5249 33.7394 39.5851 33.5987C39.6454 33.458 39.6764 33.3064 39.6764 33.1531C39.6764 32.9998 39.6454 32.8481 39.5851 32.7074C39.5249 32.5667 39.4368 32.4399 39.3263 32.3348C39.2157 32.2298 39.085 32.1487 38.9423 32.0965C38.7995 32.0444 38.6477 32.0222 38.4962 32.0316Z" fill="#FBBC04"/>
<path d="M33.3394 32.0315L33.5406 32.1518L33.6966 32.2181C33.7811 32.2428 33.8708 32.2428 33.9553 32.2181C34.0129 32.2171 34.0694 32.2015 34.1195 32.1725C34.1999 32.1461 34.2721 32.0989 34.3289 32.0357L34.4274 31.903L34.4931 31.7496C34.5176 31.6643 34.5176 31.5737 34.4931 31.4884C34.4904 31.4011 34.4634 31.3163 34.4151 31.2438L34.296 31.0407C34.2335 30.933 34.1441 30.8438 34.0368 30.782C33.9294 30.7201 33.8079 30.6878 33.6843 30.6882L33.4954 30.7131C33.3779 30.7465 33.2705 30.8092 33.1834 30.8955C33.1158 30.9577 33.065 31.0362 33.0355 31.1236C32.9938 31.2099 32.974 31.3053 32.9781 31.4013C32.9784 31.5291 33.0119 31.6546 33.0753 31.7652C33.1387 31.8758 33.2298 31.9676 33.3394 32.0315Z" fill="#FBBC04"/>
<path d="M34.3786 13.5075C36.7395 13.5075 36.7436 9.80508 34.3786 9.80508C32.0137 9.80508 32.0178 13.5075 34.3786 13.5075Z" fill="#FBBC04"/>
<path d="M34.3785 9.92536C34.2922 9.81756 34.2922 9.81756 34.3785 9.92536L34.2553 9.75541C34.1773 9.63932 34.1034 9.51905 34.0336 9.39882C33.894 9.15835 33.7708 8.90544 33.623 8.66083C33.4838 8.42563 33.2652 8.2492 33.0073 8.16394C32.7495 8.07868 32.4698 8.09042 32.2198 8.19694C31.9699 8.30346 31.7664 8.49761 31.647 8.74362C31.5276 8.98964 31.5003 9.27091 31.5701 9.53566C31.7413 10.2157 32.0456 10.8543 32.4651 11.4138C32.5438 11.582 32.6588 11.7301 32.8016 11.8475C32.9445 11.9649 33.1116 12.0484 33.2907 12.092C33.4697 12.1355 33.6562 12.1379 33.8363 12.099C34.0164 12.0602 34.1856 11.9811 34.3314 11.8674C34.4772 11.7538 34.596 11.6087 34.6789 11.4426C34.7618 11.2766 34.8068 11.0938 34.8105 10.9079C34.8142 10.722 34.7766 10.5375 34.7004 10.3682C34.6242 10.1989 34.5114 10.049 34.3703 9.92951L34.3785 9.92536Z" fill="#FBBC04"/>
<path d="M31.8938 5.1534L31.5325 5.0539C31.4131 5.01878 31.2864 5.01878 31.1671 5.0539C31.0473 5.05854 30.9309 5.09579 30.8304 5.1617L30.6456 5.30685C30.5575 5.38595 30.4922 5.48765 30.4567 5.60119C30.4158 5.67155 30.3945 5.7518 30.3952 5.83339C30.3644 5.95302 30.3644 6.07855 30.3952 6.19818L30.4855 6.41793C30.5656 6.55353 30.6787 6.66627 30.8139 6.74548L31.1219 6.98182C31.2706 7.07208 31.4411 7.11934 31.6146 7.11857L31.8774 7.08547C32.0402 7.03785 32.1885 6.94938 32.3085 6.82837C32.4034 6.74192 32.4742 6.63184 32.5138 6.50913C32.5678 6.38937 32.5957 6.25933 32.5957 6.12774C32.5957 5.99614 32.5678 5.86611 32.5138 5.74634C32.4742 5.62363 32.4034 5.51355 32.3085 5.4271C32.1885 5.3061 32.0402 5.21763 31.8774 5.17L31.8938 5.1534Z" fill="#FBBC04"/>
<path d="M31.1015 3.68164L31.1795 3.81008C31.2611 3.95024 31.3775 4.0665 31.5172 4.14724C31.6569 4.22799 31.8151 4.27043 31.9761 4.27043C32.1371 4.27043 32.2952 4.22799 32.435 4.14724C32.5747 4.0665 32.6911 3.95024 32.7726 3.81008L32.8465 3.68164C32.9136 3.56594 32.9575 3.43793 32.9757 3.3051C32.9939 3.17227 32.986 3.03715 32.9524 2.90741C32.9189 2.77767 32.8603 2.65589 32.7802 2.54899C32.7 2.44209 32.5998 2.35219 32.4852 2.28441C32.3706 2.21662 32.2439 2.17228 32.1124 2.15393C31.9809 2.13558 31.847 2.14354 31.7185 2.17742C31.5901 2.2113 31.4694 2.27046 31.3636 2.35141C31.2577 2.43236 31.1687 2.5335 31.1015 2.6492C31.0126 2.80641 30.9658 2.98437 30.9658 3.16542C30.9658 3.34647 31.0126 3.52443 31.1015 3.68164Z" fill="#FBBC04"/>
<path d="M29.3859 -3.76874C28.7574 -3.31583 28.2816 -2.67905 28.0228 -1.94447C27.8876 -1.57048 27.8586 -1.16575 27.9391 -0.775996C28.0196 -0.386246 28.2065 -0.0269794 28.4786 0.261197C28.5901 0.371395 28.7249 0.454597 28.8729 0.50473C29.0209 0.554863 29.1781 0.570623 29.333 0.550683C29.4878 0.530744 29.6361 0.475676 29.7669 0.389644C29.8976 0.303612 30.0074 0.188849 30.088 0.0539002L30.1784 -0.116148L30.2769 -0.352495C30.2523 -0.294452 30.2523 -0.294452 30.2769 -0.352495C30.395 -0.573746 30.4925 -0.805486 30.5684 -1.04483C30.4863 -0.80437 30.6464 -1.16091 30.7039 -1.23968C30.5931 -1.08214 30.7039 -1.17752 30.7614 -1.26873C30.8189 -1.35994 30.5274 -1.1194 30.8066 -1.29768C31.1263 -1.49341 31.358 -1.80734 31.4523 -2.17272C31.5465 -2.5381 31.4961 -2.92623 31.3116 -3.25465C30.9421 -3.83508 30.0059 -4.25381 29.3777 -3.76459L29.3859 -3.76874Z" fill="#FBBC04"/>
<path d="M26.8278 23.7396C29.1846 23.7396 29.1887 20.0374 26.8278 20.0374C24.467 20.0374 24.4629 23.7396 26.8278 23.7396Z" fill="#FBBC04"/>
<path d="M26.8278 23.7396C29.1846 23.7396 29.1887 20.0374 26.8278 20.0374C24.467 20.0374 24.4629 23.7396 26.8278 23.7396Z" fill="#FBBC04"/>
<path d="M24.4255 25.2902C26.7823 25.2902 26.7864 21.5921 24.4255 21.5921C22.0646 21.5921 22.0605 25.2902 24.4255 25.2902Z" fill="#FBBC04"/>
</svg>
