<svg xmlns="http://www.w3.org/2000/svg" width="82" height="82" fill="none" viewBox="0 0 82 82"><path fill="#FBBC04" d="M41 81.999H61.5L82 61.499V40.999H61.5L41 61.499V81.999Z"/><path fill="#3EAB59" d="M41 81.9992H61.5V61.4992H41V81.9992Z"/><path fill="#FBBC04" d="M41 41H61.5L82 20.5V0H61.5L41 20.5V41Z"/><path fill="#3EAB59" d="M41 41H61.5V20.5H41V41Z"/><path fill="#FBBC04" d="M0 81.9992H20.5L41 61.4992V40.9992H20.5L0 61.4992V81.9992Z"/><path fill="#3EAB59" d="M0 81.9992H20.5V61.4992H0V81.9992Z"/><path fill="#FBBC04" d="M0 41H20.5L41 20.5V0H20.5L0 20.5V41Z"/><path fill="#3EAB59" d="M0 41H20.5V20.5H0V41Z"/></svg>