<svg xmlns="http://www.w3.org/2000/svg" width="85" height="47" fill="none" viewBox="0 0 85 47"><g clip-path="url(#clip0_141_287)"><path fill="#E84C40" d="M47.9502 23.1161C49.2854 23.1886 50.6206 23.1644 51.9498 23.1161C52.6203 23.0858 53.2849 23.0375 53.9495 22.983L54.8715 22.8984C55.2326 22.8199 55.6061 22.8199 55.9672 22.8984C56.0856 22.9397 56.1903 23.0134 56.2697 23.1113C56.3491 23.2092 56.4 23.3274 56.4168 23.4528C56.4335 23.5782 56.4155 23.7058 56.3647 23.8214C56.3138 23.937 56.2322 24.0362 56.1289 24.1077C55.7865 24.2778 55.4087 24.3628 55.0272 24.3556C54.668 24.3919 54.3087 24.4221 53.9495 24.4463C53.2849 24.4947 52.6203 24.5068 51.9498 24.5007C50.5653 24.4766 49.1844 24.3493 47.8185 24.1198C47.2198 24.0352 47.3814 23.0798 47.9502 23.11V23.1161Z"/><path fill="#E84C40" d="M56.2906 22.0216C57.2247 20.9574 58.0868 19.7844 58.931 18.6416C59.7654 17.5465 60.482 16.3648 61.0685 15.1164C62.3139 12.3834 62.3438 9.25729 61.7391 6.35494C61.5894 5.6354 61.3978 4.92796 61.1882 4.22655C60.9165 3.55232 60.745 2.8412 60.6793 2.11629C60.6716 1.83264 60.7219 1.55043 60.8272 1.28732C60.9324 1.02422 61.0903 0.785878 61.2909 0.587226C61.4915 0.388575 61.7306 0.233894 61.9932 0.132848C62.2557 0.0318012 62.5361 -0.0134333 62.8168 -1.17228e-05C64.7977 0.0773313 66.6975 0.814378 68.2203 2.09623C69.743 3.37808 70.8029 5.1327 71.2349 7.08657C71.5163 8.39868 71.7139 10.2913 71.0194 11.5066L70.75 10.4727L70.8577 10.521C71.5822 10.8596 71.1152 11.7908 70.4985 11.8694H70.3728C69.9596 11.9178 69.6363 11.4764 69.6243 11.1075C69.6243 10.5513 69.774 10.001 69.798 9.44473C69.8915 7.64023 69.3365 5.86233 68.2353 4.43817C67.5506 3.5822 66.6881 2.88863 65.7087 2.40653C65.2165 2.16862 64.7007 1.98417 64.1699 1.85629C63.7987 1.77164 62.8886 1.48746 62.5414 1.71118C62.1941 1.9349 62.5414 2.87211 62.6611 3.22886C63.2806 5.12933 63.6372 7.10711 63.7209 9.10612C63.8232 11.6031 63.2653 14.0825 62.1043 16.2895C61.4513 17.4759 60.6615 18.58 59.7513 19.5788C58.8232 20.6309 57.7575 21.5016 56.7576 22.4811C56.4523 22.7835 56.0092 22.3239 56.2906 22.0035V22.0216Z"/><path fill="#E84C40" d="M70.978 11.4945C70.4782 12.2969 70.2262 13.2314 70.2539 14.1789C70.2816 15.1265 70.5879 16.0443 71.1337 16.8155C72.3312 18.436 74.301 18.8774 76.181 18.8592C77.2285 18.8269 78.2737 18.7401 79.3123 18.5992C80.3475 18.4142 81.4016 18.3614 82.4497 18.442C84.2998 18.7141 84.8806 20.3225 84.9704 21.9974C85.0602 23.6723 85.0242 25.4802 83.9585 26.7923C82.761 28.2737 80.6595 28.3402 78.9232 28.6063C75.2111 29.1082 70.4871 29.211 67.6551 26.2542C66.0026 24.5128 67.236 22.4448 68.8525 21.1992C70.4691 19.9536 72.7682 19.3853 74.6782 20.4253C75.4505 20.8485 74.9117 22.2392 74.0794 21.8946C73.3119 21.577 72.4672 21.5011 71.6562 21.677C70.8452 21.8529 70.1058 22.2723 69.5351 22.8802C69.092 23.3095 68.3376 24.0169 68.6609 24.6942C68.9843 25.3714 69.8584 25.8188 70.4571 26.1272C73.5885 27.7719 77.6419 27.2216 80.9589 26.5444C81.6575 26.4774 82.3023 26.1367 82.755 25.5951C83.119 24.9817 83.3077 24.2785 83.2999 23.5634C83.3538 22.4872 83.5873 20.3225 82.1384 20.1592C81.299 20.1179 80.4576 20.1706 79.6297 20.3164C78.6717 20.4253 77.7138 20.5523 76.7498 20.5825C75.0975 20.6898 73.4461 20.3583 71.96 19.6211C71.2176 19.2159 70.5675 18.6582 70.0516 17.9838C69.5358 17.3094 69.1655 16.5334 68.9647 15.7057C68.7638 14.878 68.737 14.017 68.8858 13.1782C69.0345 12.3393 69.3557 11.5413 69.8285 10.8354C70.3075 10.1219 71.4391 10.7629 70.984 11.5187L70.978 11.4945Z"/><path fill="#E84C40" d="M83.7728 26.8347C84.0479 29.0441 84.0318 31.2807 83.7249 33.4859C83.3058 35.7413 80.7672 35.2999 79.0788 35.2636L75.7738 35.2092C74.7103 35.2571 73.6447 35.1922 72.5945 35.0157C70.7564 34.5743 69.8104 32.6878 69.3315 30.9947C69.1663 30.5059 69.141 29.9798 69.2586 29.4771C69.3761 28.9744 69.6317 28.5154 69.996 28.1528C70.7025 27.4696 71.9778 26.9012 72.9538 27.2096C73.0579 27.2401 73.1525 27.2974 73.2282 27.3758C73.304 27.4542 73.3584 27.5511 73.3861 27.657C73.4138 27.7629 73.4139 27.8742 73.3864 27.9802C73.3589 28.0861 73.3048 28.1831 73.2292 28.2617C72.5945 28.8663 71.4869 28.7817 71.0139 29.5617C70.6127 30.2268 71.2594 31.3394 71.5647 31.9803C71.7087 32.3615 71.9513 32.6966 72.2672 32.9508C72.5832 33.205 72.9609 33.3689 73.3609 33.4254C74.4158 33.5222 75.475 33.5646 76.5342 33.5524L79.7135 33.6613C80.2403 33.6613 80.7732 33.7157 81.3061 33.7157C81.6593 33.7157 82.0186 33.7157 82.1742 33.3589C82.3085 32.8996 82.3751 32.4229 82.3718 31.944C82.4257 31.3817 82.4676 30.8133 82.5035 30.251C82.5634 29.1203 82.6173 27.9956 82.6053 26.8649C82.6053 26.0909 83.713 26.1151 83.8028 26.8649L83.7728 26.8347Z"/><path fill="#E84C40" d="M81.5869 34.2901C81.9042 35.318 82.1856 36.3399 82.5149 37.3739C82.7484 38.1781 83.1496 39.1092 82.8262 39.9437C82.5029 40.7781 81.7186 41.0079 80.9642 41.153C79.9224 41.3646 78.8686 41.5339 77.8149 41.6669C75.7515 41.9881 73.6598 42.0834 71.5761 41.9511C69.4027 41.7395 69.1812 39.3934 69.247 37.6157C69.2421 36.5173 69.4708 35.4307 69.9176 34.4292C70.3906 33.5343 71.4624 32.7543 72.4443 33.3348C72.5448 33.3946 72.6282 33.4799 72.6861 33.5822C72.744 33.6846 72.7745 33.8004 72.7745 33.9183C72.7745 34.0361 72.744 34.152 72.6861 34.2543C72.6282 34.3566 72.5448 34.4419 72.4443 34.5018C72.0893 34.6441 71.7732 34.87 71.5222 35.1608C71.3479 35.4685 71.234 35.8073 71.1869 36.1585C70.9996 37.1243 70.9612 38.1135 71.0732 39.0911C71.073 39.423 71.1665 39.7481 71.3426 40.0283C71.5761 40.2762 72.1269 40.1976 72.4383 40.1976C73.4322 40.1976 74.4261 40.1976 75.4319 40.1493C76.4378 40.1009 77.4077 40.0646 78.4256 39.9739C79.3619 39.9516 80.2941 39.8402 81.2097 39.6413C81.5929 39.5325 81.6767 39.3511 81.6288 38.9641C81.5366 38.4659 81.4167 37.9733 81.2696 37.4888C81.0241 36.5213 80.8025 35.5478 80.581 34.5743C80.555 34.4382 80.5808 34.2972 80.6532 34.1795C80.7257 34.0617 80.8395 33.976 80.9718 33.9393C81.1042 33.9026 81.2454 33.9178 81.3672 33.9817C81.489 34.0456 81.5824 34.1536 81.6288 34.2841L81.5869 34.2901Z"/><path fill="#E84C40" d="M79.049 40.5604C79.2304 41.1353 79.5397 41.6606 79.9531 42.0962C80.1691 42.3744 80.3183 42.6993 80.389 43.0456C80.4596 43.3918 80.4498 43.7499 80.3602 44.0916C79.8992 45.5972 78.133 46.5102 76.714 46.8126C74.9183 47.1367 73.0722 47.029 71.3254 46.4981C70.5401 46.3363 69.8129 45.9623 69.2214 45.4161C68.6299 44.8698 68.1962 44.1718 67.9665 43.3962C67.7447 42.5148 67.7633 41.5892 68.0204 40.7176C68.2699 39.7615 68.7753 38.8933 69.4813 38.2083C69.6113 38.0862 69.776 38.0084 69.9521 37.9856C70.1282 37.9628 70.3069 37.9963 70.4632 38.0813C70.5841 38.1489 70.6837 38.2495 70.7506 38.3715C70.8239 38.4959 70.8626 38.638 70.8626 38.7827C70.8626 38.9274 70.8239 39.0695 70.7506 39.1939C70.2743 39.8556 69.8896 40.5798 69.607 41.3465C69.4147 42.073 69.4936 42.8455 69.8286 43.5172C70.559 44.9381 72.6187 45.186 74.0197 45.3311C75.5764 45.4944 77.4504 45.3311 78.6 44.1218C79.1508 43.5172 78.8934 43.1 78.4802 42.5316C78.0473 42.0143 77.7636 41.3868 77.66 40.7176C77.5642 39.9497 78.8934 39.7562 79.0071 40.5302L79.049 40.5604Z"/><path fill="#E84C40" d="M69.8099 46.1958C67.9337 45.5056 66.1021 44.6978 64.3256 43.7771C62.6012 42.9488 60.817 41.8483 58.8891 41.6367C56.9612 41.425 55.1111 41.8362 53.267 42.0962L50.2733 42.5195C49.3872 42.6464 48.3514 43.0092 47.5192 42.5799C47.4266 42.5244 47.3479 42.4481 47.2889 42.3571C47.23 42.266 47.1924 42.1626 47.1791 42.0547C47.1659 41.9467 47.1772 41.8372 47.2122 41.7343C47.2473 41.6315 47.3052 41.5381 47.3815 41.4613C48.082 40.7962 49.3213 40.8567 50.2374 40.7418L53.261 40.3125C55.2189 40.0404 57.2126 39.6474 59.1884 39.9013C61.1642 40.1553 62.8227 41.1106 64.5291 41.9813C66.511 42.9093 68.4345 43.9594 70.2889 45.1255C70.8098 45.4762 70.4984 46.4255 69.8398 46.2018L69.8099 46.1958Z"/><path fill="#E84C40" d="M60.5295 40.6632C59.864 40.2429 59.3024 39.6748 58.8873 39.002C58.4723 38.3293 58.2148 37.5697 58.1346 36.7813C58.0553 35.9708 58.1737 35.153 58.4795 34.3994C58.7853 33.6458 59.2692 32.9792 59.8889 32.458C60.3499 32.1193 60.8109 32.8268 60.4876 33.2138C60.0326 33.6645 59.6597 34.1925 59.3859 34.7738C59.1338 35.3915 59.0332 36.0615 59.0926 36.7268C59.1606 37.3615 59.37 37.9723 59.7049 38.5136C60.0398 39.055 60.4916 39.5128 61.0265 39.8529C61.5354 40.1734 61.0684 40.9897 60.5535 40.6632H60.5295Z"/><path fill="#E84C40" d="M60.4161 28.7817C60.4351 28.121 60.2779 27.4674 59.9611 26.8891C59.8099 26.6101 59.6293 26.3486 59.4222 26.1091C59.3085 25.976 59.1827 25.8672 59.057 25.7463C58.9236 25.6187 58.8069 25.4744 58.7097 25.317C58.566 25.0932 58.8055 24.8695 59.0211 24.9058C59.4117 25.0061 59.7575 25.2361 60.003 25.5588C60.2601 25.8452 60.4758 26.1668 60.6436 26.5142C60.9803 27.2188 61.121 28.0025 61.0508 28.7817C61.0492 28.8662 61.0153 28.9468 60.9561 29.0065C60.897 29.0663 60.8171 29.1006 60.7334 29.1021C60.6493 29.1021 60.5686 29.0684 60.5091 29.0083C60.4496 28.9482 60.4161 28.8667 60.4161 28.7817Z"/><path fill="#E84C40" d="M71.1752 11.0047C70.9979 11.2725 70.7624 11.4958 70.4867 11.6578C70.2635 11.821 70.0294 11.9685 69.7862 12.0992C69.2605 12.3875 68.7014 12.6089 68.1217 12.7582C66.9758 13.109 65.7432 13.0318 64.649 12.5406C64.5829 12.4974 64.5322 12.4341 64.504 12.3598C64.4759 12.2856 64.4718 12.2042 64.4925 12.1274C64.5131 12.0507 64.5574 11.9826 64.6189 11.9329C64.6804 11.8833 64.756 11.8547 64.8347 11.8513C65.8512 11.9304 66.8737 11.8755 67.8762 11.688C68.3539 11.57 68.8161 11.3954 69.2533 11.168C69.4828 11.0468 69.7048 10.9116 69.9179 10.7629C70.1378 10.5802 70.3767 10.422 70.6304 10.2913C71.0435 10.122 71.3608 10.6722 71.1752 11.0047Z"/><path fill="#E84C40" d="M40.4061 39.5627C42.279 40.5455 43.8659 42.0043 45.0103 43.7953C45.2737 44.2065 44.8427 44.6177 44.4116 44.5451C40.9575 43.92 37.6232 42.7466 34.5325 41.0683L35.251 40.512L36.2209 45.5246C36.2438 45.623 36.2348 45.7262 36.1952 45.8191C36.1556 45.9119 36.0875 45.9894 36.001 46.0402C35.9145 46.091 35.8141 46.1124 35.7147 46.1012C35.6152 46.09 35.5219 46.0469 35.4486 45.9781C33.6279 44.3476 31.4107 43.2353 29.0242 42.7553C28.479 42.5961 27.9036 42.5732 27.3477 42.6888C26.8595 42.8542 26.356 42.9697 25.8449 43.0335C24.7716 43.129 23.6932 42.9196 22.7315 42.4288L23.2824 42.1083C23.3363 42.7735 23.3841 43.4386 23.438 44.1037C23.4381 44.1605 23.4253 44.2165 23.4005 44.2674C23.3757 44.3183 23.3396 44.3628 23.2949 44.3973C23.2503 44.4318 23.1984 44.4555 23.1433 44.4664C23.0881 44.4774 23.0312 44.4753 22.977 44.4604L13.9961 42.1325L14.4571 41.5278C14.783 42.2392 14.9442 43.0161 14.9287 43.7997C14.9131 44.5834 14.7211 45.3531 14.3673 46.0507C14.3254 46.1221 14.2659 46.1813 14.1945 46.2225C14.1231 46.2636 14.0423 46.2852 13.9601 46.2852C13.8779 46.2852 13.7972 46.2636 13.7258 46.2225C13.6544 46.1813 13.5948 46.1221 13.553 46.0507C13.0082 44.793 11.637 44.4544 10.3857 44.3395C8.6853 44.1823 6.937 44.279 5.22464 44.273H-0.385468C-2.30141 44.273 -4.2413 44.3456 -6.15125 44.1642C-6.25923 44.1642 -6.36279 44.1209 -6.43914 44.0437C-6.51549 43.9666 -6.55838 43.862 -6.55838 43.753C-6.55838 43.644 -6.51549 43.5394 -6.43914 43.4623C-6.36279 43.3852 -6.25923 43.3418 -6.15125 43.3418C-4.04372 43.1544 -1.90626 43.2693 0.201275 43.2814H6.55384C9.09245 43.2814 13.1998 42.7372 14.4152 45.7L13.553 45.5851C13.8527 45.0153 14.0218 44.3847 14.0477 43.74C14.0736 43.0953 13.9557 42.4529 13.7027 41.8604C13.577 41.552 13.9422 41.2558 14.2116 41.3465L23.1926 43.7651L22.7315 44.1218C22.6836 43.4567 22.6298 42.7916 22.5759 42.1265C22.5759 41.8302 22.8992 41.6972 23.1267 41.806C23.7308 42.1182 24.393 42.2989 25.0706 42.3364C25.7482 42.3739 26.4261 42.2673 27.0604 42.0237C27.5436 41.8305 28.0722 41.7842 28.5811 41.8906C29.103 41.955 29.6208 42.0499 30.1319 42.1748C32.352 42.7363 34.4056 43.8292 36.1192 45.3614L35.3468 45.8149L34.323 40.8144C34.2984 40.7199 34.302 40.6202 34.3334 40.5279C34.3647 40.4355 34.4224 40.3545 34.4991 40.2951C34.5759 40.2357 34.6683 40.2005 34.7647 40.1939C34.8612 40.1873 34.9575 40.2096 35.0414 40.2581C38.0897 41.8273 41.3465 42.9433 44.7109 43.5716L44.1122 44.3274C43.0816 42.6603 41.6366 41.2948 39.9211 40.3669C39.3942 40.0827 39.8612 39.2846 40.3881 39.5627H40.4061Z"/><path fill="#E84C40" d="M42.1487 39.2664C44.0297 38.7391 46.037 38.9285 47.7888 39.7985L47.1481 40.9051L43.3821 38.8129C43.2587 38.7421 43.1621 38.6318 43.1075 38.4995C43.0529 38.3672 43.0434 38.2203 43.0804 38.0819C43.1174 37.9436 43.1988 37.8215 43.3119 37.7349C43.4251 37.6484 43.5635 37.6022 43.7054 37.6036L45.1843 37.7125L44.6454 38.6678L43.7832 37.1864C43.7275 37.089 43.6982 36.9785 43.6982 36.866C43.6982 36.7534 43.7275 36.6429 43.7832 36.5455C43.9133 36.3085 44.0915 36.102 44.3061 35.9394C44.5207 35.7769 44.7669 35.662 45.0286 35.6022C45.1874 35.5581 45.357 35.5795 45.5002 35.6617C45.6433 35.744 45.7483 35.8802 45.792 36.0406C45.8356 36.201 45.8144 36.3723 45.733 36.5169C45.6516 36.6614 45.5167 36.7674 45.3579 36.8115C43.7234 37.265 42.7055 35.2455 43.3342 33.891C43.7715 33.1211 44.426 32.5001 45.2142 32.1073C46.0465 31.6115 47.0463 31.1399 47.214 30.0757L48.0223 30.8919C46.256 31.3454 44.4837 31.7868 42.7175 32.2282C42.2624 32.3371 41.6937 31.8957 41.8912 31.3878C42.841 28.9199 44.1595 26.6136 45.801 24.5491L46.4775 25.7221C45.8489 25.837 45.2262 25.9579 44.5975 26.0607C44.1305 26.1393 43.5318 25.7523 43.7413 25.2021C44.5032 23.1698 44.8336 20.9986 44.7113 18.829L45.8489 19.3007C43.4797 21.6386 40.4305 23.1475 37.1493 23.6058C35.5342 23.8419 33.8931 23.8297 32.2816 23.5695C31.4977 23.4482 30.7263 23.256 29.9765 22.9951C29.1982 22.723 28.3899 22.1063 27.5816 22.203C18.6689 23.3447 9.69463 23.9263 0.710556 23.9444C-4.36069 23.9082 -9.46786 23.7933 -14.5152 23.2612C-15.1498 23.1947 -15.1738 22.197 -14.5152 22.2393C-10.1205 22.5477 -5.74376 22.8439 -1.34309 22.9528C3.05758 23.0616 7.35645 22.9528 11.6972 22.6868C16.038 22.4207 20.3729 22.0277 24.6897 21.4774C25.7854 21.3263 26.923 21.0542 28.0187 20.9876C28.7072 20.9514 29.4676 21.5137 30.1262 21.7314C31.7154 22.2694 33.3839 22.5291 35.0597 22.4993C38.752 22.4541 42.2854 20.9753 44.9268 18.3695C45.0218 18.28 45.1404 18.2201 45.2683 18.1968C45.3961 18.1735 45.528 18.188 45.648 18.2383C45.7679 18.2887 45.871 18.3729 45.9448 18.4809C46.0187 18.5889 46.0602 18.716 46.0644 18.8472C46.1725 21.1321 45.8369 23.4162 45.0765 25.571L44.2203 24.7123C44.819 24.5914 45.4717 24.4765 46.1003 24.3677C46.2473 24.3311 46.402 24.3436 46.5413 24.4032C46.6806 24.4629 46.7971 24.5665 46.8733 24.6985C46.9495 24.8306 46.9812 24.984 46.9639 25.1358C46.9465 25.2876 46.8809 25.4297 46.7769 25.5407C45.2632 27.4246 44.0511 29.5362 43.1845 31.7989L42.3583 30.9645L47.675 29.6584C47.7867 29.6297 47.9039 29.6307 48.0151 29.6615C48.1263 29.6923 48.2277 29.7518 48.3092 29.8342C48.3908 29.9165 48.4497 30.0189 48.4802 30.1312C48.5107 30.2435 48.5118 30.3619 48.4833 30.4747C48.2617 31.7989 47.1181 32.5487 46.0404 33.1594C45.433 33.4193 44.9043 33.8364 44.5077 34.3687C44.2981 34.7436 44.388 35.7957 45.0286 35.6143L45.3579 36.8236C45.2518 36.8378 45.1509 36.8784 45.0641 36.9418C44.9774 37.0051 44.9076 37.0891 44.8609 37.1864V36.5455L45.7291 38.0269C45.7832 38.1238 45.8113 38.2333 45.8108 38.3445C45.8102 38.4557 45.781 38.5649 45.726 38.6612C45.6711 38.7576 45.5922 38.8379 45.4972 38.8942C45.4023 38.9505 45.2944 38.9808 45.1843 38.9823L43.7054 38.8795L44.0227 37.6702C45.28 38.3675 46.5354 39.0649 47.7888 39.7623C48.5012 40.1674 47.8726 41.2316 47.1481 40.8688C45.677 40.0926 43.9957 39.8209 42.3583 40.0948C41.8074 40.1916 41.5619 39.3753 42.1247 39.2302L42.1487 39.2664Z"/><path fill="#E84C40" d="M43.9328 25.5467C44.1005 25.6193 44.2381 25.6798 44.3938 25.7644L43.9747 26.49C42.3994 25.4115 40.7056 24.5207 38.9274 23.8356L39.5262 23.0737C40.9931 25.0207 43.37 26.1877 44.4298 28.4672C44.4953 28.5898 44.52 28.7304 44.5 28.8683C44.4801 29.0061 44.4166 29.1338 44.3191 29.2323C44.2216 29.3308 44.0952 29.3948 43.9587 29.415C43.8222 29.4351 43.683 29.4102 43.5616 29.344C41.975 28.4491 40.3943 27.53 38.7718 26.6714L39.6519 25.7584C41.0709 27.7175 43.3101 28.8663 44.9866 30.5654C45.0744 30.6598 45.1334 30.7778 45.1563 30.9052C45.1792 31.0326 45.1651 31.164 45.1158 31.2836C45.0664 31.4031 44.9838 31.5056 44.878 31.5788C44.7723 31.652 44.6478 31.6928 44.5196 31.6961C43.3221 31.7687 42.2863 30.6803 41.3523 30.0575C39.9044 29.0019 38.3926 28.0386 36.8259 27.1733L37.5204 26.2663C39.3166 28.5156 42.0348 29.8942 43.4598 32.4459C43.5108 32.5477 43.5323 32.6619 43.5218 32.7755C43.5113 32.8891 43.4691 32.9973 43.4003 33.0878C43.3314 33.1782 43.2386 33.2471 43.1326 33.2865C43.0266 33.3259 42.9117 33.3343 42.8012 33.3105C38.9214 31.9561 36.0176 28.824 32.5689 26.6956L33.2215 25.8491C34.856 27.5905 36.772 29.09 38.5203 30.7226C39.9093 32.0226 41.5139 33.4254 42.0648 35.312C42.0857 35.3936 42.0879 35.479 42.0713 35.5617C42.0547 35.6444 42.0196 35.7221 41.9689 35.7891C41.9181 35.8561 41.8529 35.9106 41.7783 35.9484C41.7036 35.9862 41.6214 36.0063 41.5379 36.0073C40.4637 35.9679 39.4307 35.5798 38.5921 34.9008C37.5439 34.1472 36.544 33.3272 35.5985 32.4459C33.2994 30.378 30.6649 28.7212 28.5334 26.4537C28.282 26.1877 28.6053 25.7221 28.9346 25.9337C30.9567 27.286 32.833 28.8485 34.5327 30.5956C36.3289 32.3189 38.2449 33.9092 39.8614 35.7957C39.945 35.8808 39.9948 35.9939 40.0013 36.1136C40.0078 36.2332 39.9707 36.3512 39.897 36.445C39.8232 36.5389 39.7179 36.6022 39.601 36.623C39.4841 36.6437 39.3638 36.6204 39.2627 36.5575C35.2632 34.278 32.1139 30.7468 28.6173 27.8021C28.3419 27.5724 28.7131 27.0826 29.0065 27.3002C32.6408 30.0454 35.8799 33.2864 39.7477 35.7171L39.0891 36.3822C37.6341 34.4715 35.7781 32.9115 34.0837 31.2245C32.3893 29.5375 30.6829 27.7598 28.6173 26.5203L29.0184 25.9942C31.1259 28.0561 33.6885 29.5012 35.9218 31.3998C36.8199 32.1617 37.718 32.9538 38.658 33.6371C39.4663 34.2417 40.4901 34.9613 41.5379 34.9189L41.011 35.6143C40.4602 33.8003 38.7777 32.4519 37.4545 31.2003C35.814 29.6463 34.1016 28.177 32.4611 26.623C32.0061 26.1937 32.5869 25.4923 33.1137 25.7765C36.6043 27.657 39.3465 30.7831 43.1126 32.1919L42.4539 33.0505C41.1487 30.5775 38.4963 29.1747 36.7061 27.0947C36.6364 26.9893 36.6012 26.8645 36.6056 26.7378C36.6099 26.6112 36.6536 26.4891 36.7304 26.3889C36.8071 26.2886 36.9131 26.2153 37.0334 26.1792C37.1537 26.1431 37.2821 26.1461 37.4006 26.1877C38.8389 26.9033 40.2236 27.7238 41.5439 28.6426C42.0528 28.9751 42.5557 29.3077 43.0527 29.6584C43.4524 30.0522 43.9664 30.3064 44.5196 30.384L44.0585 31.5147C42.2983 29.7007 40.0291 28.4914 38.5442 26.4235C38.1431 25.8672 38.8975 25.2505 39.4184 25.5407C41.023 26.4114 42.5976 27.3547 44.2082 28.2314L43.2802 28.951C42.418 26.7258 39.9991 25.4802 38.646 23.5877C38.5938 23.4966 38.5699 23.3917 38.5773 23.2867C38.5847 23.1817 38.6231 23.0814 38.6876 22.9987C38.7521 22.916 38.8396 22.8547 38.9389 22.8228C39.0383 22.7909 39.1448 22.7899 39.2447 22.8198C41.0905 23.5725 42.8347 24.5578 44.4357 25.7523C44.8608 26.0667 44.4777 26.7682 44.0166 26.4779C43.9056 26.4017 43.7872 26.3369 43.6634 26.2844C43.2502 26.0909 43.5496 25.3533 43.9747 25.5347L43.9328 25.5467Z"/><path fill="#E84C40" d="M27.2889 26.0668C29.1749 27.524 31.1506 28.8603 33.0606 30.2994C34.9425 31.6953 36.7418 33.2014 38.4492 34.8101C38.9401 35.2636 38.2995 36.1282 37.7307 35.7473C32.6236 32.3552 27.4385 29.0961 22.487 25.4319C22.05 25.1114 22.2894 24.2225 22.8882 24.4705C25.8279 25.6012 28.151 27.7417 30.6357 29.5979C31.9649 30.5956 33.2941 31.5994 34.5933 32.6212C35.246 33.1412 35.8926 33.6733 36.5751 34.1692C37.1433 34.5394 37.6287 35.0255 38.0001 35.5961C38.0597 35.7065 38.0862 35.8321 38.0763 35.9574C38.0664 36.0828 38.0205 36.2025 37.9442 36.3019C37.868 36.4013 37.7647 36.4762 37.6471 36.5173C37.5294 36.5584 37.4024 36.564 37.2817 36.5334C36.3608 36.2938 35.4919 35.8838 34.7191 35.3241C33.6953 34.7194 32.6774 34.1147 31.6656 33.5101C29.6119 32.3008 27.5463 31.0612 25.5106 29.8035C23.7765 28.634 21.9774 27.566 20.122 26.6049C18.8467 26.0002 17.1763 25.4742 16.4698 24.1439C16.3952 24.0387 16.356 23.9121 16.358 23.7827C16.3599 23.6534 16.4029 23.528 16.4806 23.4251C16.5584 23.3223 16.6667 23.2473 16.7898 23.2113C16.9129 23.1752 17.0441 23.18 17.1643 23.2249C20.8405 24.2709 23.8461 27.0282 26.9356 29.1686C30.4921 31.6397 33.9767 34.2095 37.3894 36.878C37.9882 37.3255 37.3356 38.2203 36.7129 38.051C35.246 37.6459 33.9886 36.6664 32.7253 35.8501C30.8034 34.6106 28.8036 33.4738 26.8338 32.3068C22.7684 29.8882 18.733 27.4333 14.5538 25.2323L15.1945 24.1258C21.1818 28.0077 27.3188 31.7566 33.0067 36.0738C33.6055 36.5273 35.3657 37.525 34.8508 38.4925C34.7551 38.6505 34.6022 38.7648 34.4245 38.8111C34.2468 38.8573 34.0583 38.832 33.8988 38.7404C29.7077 36.8901 25.7561 34.5078 21.7266 32.2766C19.7029 31.1559 17.6732 30.0494 15.6375 28.957C14.7215 28.4612 13.7994 27.9775 12.9073 27.4333C12.095 26.8464 11.1718 26.4348 10.1951 26.224L10.7938 25.1658C14.2305 27.9775 18.0085 30.3235 21.5051 33.0263C23.3312 34.4533 25.1573 35.8864 26.9595 37.3436C28.4144 38.5227 30.1567 39.5627 31.1866 41.1711C31.2415 41.2702 31.2736 41.3806 31.2804 41.494C31.2873 41.6074 31.2688 41.7209 31.2262 41.8261C31.1836 41.9313 31.1181 42.0254 31.0345 42.1015C30.951 42.1776 30.8515 42.2336 30.7435 42.2655C29.9173 42.4953 29.0731 42.072 28.3486 41.6608C27.4385 41.159 26.5524 40.645 25.6184 40.1492C22.984 38.7343 20.3675 37.2771 17.763 35.8138C13.2067 33.2622 8.32703 31.1882 4.17184 27.9533C4.01702 27.8611 3.90482 27.7105 3.85991 27.5348C3.81499 27.359 3.84106 27.1724 3.93237 27.0161C4.02367 26.8597 4.17273 26.7464 4.34678 26.701C4.52081 26.6557 4.70557 26.682 4.86039 26.7742C8.19532 28.5882 11.2908 30.8254 14.5898 32.7119C17.3679 34.3082 20.3915 35.8743 22.4092 38.4562C22.7864 38.9459 22.5948 39.8227 21.8644 39.7925C20.7787 39.6819 19.7281 39.3419 18.7809 38.7948C17.7391 38.2687 16.6853 37.7548 15.6375 37.2287C13.3264 36.0557 11.0333 34.8464 8.74615 33.6008C6.8362 32.585 4.88432 31.7022 2.93246 30.7891C1.02738 29.9814 -0.741955 28.8799 -2.31239 27.524C-2.80933 27.0584 -2.3124 26.0244 -1.61188 26.3147C2.20203 28.0984 5.79441 30.2933 9.3868 32.4096C12.7038 34.3687 16.1764 36.092 19.1162 38.6315C19.7927 39.2362 19.0383 40.0948 18.3378 39.986C17.4129 39.7655 16.5321 39.3872 15.7333 38.8673C14.7694 38.3352 13.7934 37.8394 12.8235 37.3194C10.6761 36.1585 8.52264 35.0016 6.36321 33.8487C4.18383 32.6877 1.99249 31.5389 -0.174915 30.3417C-2.09684 29.2835 -4.22833 28.3524 -5.94669 26.9737C-6.45561 26.5686 -6.01256 25.7644 -5.43778 25.7644C-4.67342 25.8279 -3.93284 26.0634 -3.27038 26.4537C-2.49802 26.8286 -1.75558 27.27 -1.01915 27.7114C1.09438 28.9872 3.32166 30.0877 5.45913 31.3394C8.06959 32.8389 10.6561 34.3627 13.2426 35.8743C14.4401 36.5817 16.8889 37.271 17.0086 38.958C17.0075 39.0848 16.9777 39.2096 16.9213 39.3228C16.865 39.4361 16.7836 39.5348 16.6836 39.6113C16.5835 39.6878 16.4674 39.7401 16.3442 39.7642C16.221 39.7882 16.0939 39.7835 15.9728 39.7501C7.37506 36.6422 -0.336601 31.5691 -8.70087 27.9351L-7.97639 26.6109C-6.01854 27.8626 -3.96491 28.951 -1.92923 30.0635C0.106457 31.1761 2.22599 32.4822 4.27365 33.6915C6.06984 34.7859 7.86602 35.9529 9.72208 36.9566C11.0812 37.6883 12.6199 38.4562 13.524 39.7622C13.5962 39.8884 13.6343 40.0315 13.6347 40.1772C13.6351 40.3229 13.5978 40.4662 13.5263 40.5927C13.4549 40.7193 13.3518 40.8248 13.2275 40.8987C13.1031 40.9726 12.9618 41.0123 12.8175 41.0139C9.37481 40.6692 6.23149 39.1455 3.07019 37.8757C-0.402443 36.4971 -3.89304 35.1003 -7.47943 34.018L-6.58733 33.1171C-6.58733 33.1775 -6.58733 33.1533 -6.58733 33.1775C-6.51697 33.2436 -6.45096 33.3143 -6.38974 33.3891C-6.20306 33.5679 -6.00288 33.7316 -5.79101 33.8789C-5.23419 34.2598 -4.64746 34.5924 -4.05471 34.9189C-2.85725 35.5236 -1.65979 36.1282 -0.46233 36.6966C1.28596 37.5371 2.94447 38.6315 4.60894 39.6353C5.51901 40.1915 6.43507 40.7297 7.33915 41.286C8.1814 41.7375 8.89317 42.4021 9.40478 43.2148C9.46813 43.3232 9.50602 43.4447 9.51554 43.5702C9.52506 43.6956 9.50593 43.8216 9.45967 43.9384C9.4134 44.0552 9.34122 44.1598 9.24866 44.244C9.1561 44.3282 9.04562 44.3898 8.92576 44.4241C6.67454 45.1679 4.13594 43.4748 2.14217 42.5799C0.866875 41.9753 -0.402431 41.413 -1.67174 40.8083C-3.06573 40.0419 -4.57782 39.5186 -6.14428 39.2604L-5.76108 37.8152C-3.12068 39.478 -0.115059 40.4878 2.31579 42.4892C2.91452 42.9851 2.31579 43.7772 1.75298 43.8618C0.339977 44.0493 -1.30655 43.499 -2.5998 42.9669C-3.27376 42.7189 -3.91201 42.3813 -4.49777 41.9632C-5.15235 41.3255 -5.75315 40.6338 -6.29396 39.8953C-6.84479 39.2906 -5.95868 38.3897 -5.40186 38.9883C-4.9213 39.5893 -4.39695 40.1532 -3.83319 40.6753C-3.29718 41.0464 -2.70457 41.3262 -2.07891 41.5037C-1.00119 41.8785 0.393856 42.4469 1.56138 42.2836L1.20815 43.626C-1.1269 41.7455 -4.01279 40.7599 -6.51549 39.1515C-7.11422 38.7766 -6.93459 37.6157 -6.1263 37.7064C-3.13264 38.0511 -0.534157 39.7501 2.21402 40.8929C3.23785 41.3222 4.22575 41.8362 5.24958 42.2595C6.27341 42.6827 7.46486 43.2027 8.51264 42.8641L8.03366 44.0734C7.57862 43.2209 6.66856 42.7553 5.87225 42.2595C4.82447 41.6548 3.79464 40.9595 2.74686 40.3246C1.29194 39.4418 -0.156971 38.5106 -1.68972 37.785C-2.971 37.1804 -4.25829 36.5394 -5.48569 35.8138C-6.36582 35.2938 -7.70097 34.6045 -8.01231 33.5282C-8.04475 33.4036 -8.04429 33.2725 -8.01096 33.1481C-7.97763 33.0237 -7.91261 32.9103 -7.82236 32.8191C-7.73212 32.728 -7.6198 32.6623 -7.49661 32.6287C-7.37342 32.595 -7.24364 32.5945 -7.12021 32.6273C-3.59967 33.6008 -0.180935 34.9733 3.23183 36.2552C6.34523 37.4282 9.44665 38.9943 12.8115 39.3632L12.105 40.6088C11.3147 39.4357 9.66819 38.7948 8.47672 38.1115C6.60868 37.0594 4.81249 35.8562 2.98037 34.7375C1.02851 33.5282 -0.935337 32.3552 -2.94108 31.2487C-4.94683 30.1421 -6.85078 29.1082 -8.72481 27.8989C-8.89392 27.7994 -9.017 27.6362 -9.06696 27.4452C-9.11693 27.2541 -9.0897 27.0508 -8.99125 26.88C-8.8928 26.7092 -8.73118 26.5849 -8.54198 26.5345C-8.35278 26.484 -8.1515 26.5115 -7.98239 26.6109C0.244175 30.2389 7.95583 34.9552 16.38 38.0994L15.3442 38.8976C15.3442 39.1636 15.3442 38.9399 15.1885 38.819C15.0328 38.698 14.9131 38.6073 14.7694 38.5166C14.4221 38.2869 14.0569 38.0873 13.6917 37.912C12.8355 37.4585 12.0092 36.9748 11.177 36.479C8.84195 35.0882 6.5129 33.6854 4.15989 32.3249C2.22599 31.2063 0.214245 30.2026 -1.68972 29.0356C-2.28845 28.6607 -2.9351 28.2798 -3.57574 27.9412C-4.14626 27.5548 -4.79443 27.3008 -5.4737 27.1975L-4.97075 25.9881C-4.11517 26.6201 -3.19606 27.1592 -2.22859 27.5965C-1.20476 28.1105 -0.198887 28.6668 0.812969 29.2049L7.11163 32.5305C9.18922 33.6189 11.2608 34.7254 13.3324 35.8259C14.3084 36.3459 15.2843 36.8478 16.2542 37.3617C17.0168 37.8548 17.8512 38.2241 18.727 38.4562L17.9486 39.8106C15.1466 37.3315 11.7757 35.6566 8.59647 33.764C5.12383 31.678 1.72305 29.3924 -2.06093 27.8989L-1.36042 26.6896C0.137127 27.9487 1.81717 28.9684 3.62102 29.7128C5.49504 30.5654 7.37507 31.3756 9.20719 32.3249C11.3806 33.4496 13.536 34.5985 15.7214 35.711C16.7811 36.2492 17.8588 36.7631 18.9246 37.2952C19.8346 37.7487 20.7567 38.3655 21.7985 38.4259L21.1279 39.599C19.206 37.0655 16.1644 35.572 13.4941 34.0059C10.3148 32.1315 7.34512 29.9245 4.10599 28.1468L4.79454 26.9677C8.78808 29.991 13.3863 31.9622 17.751 34.3445C20.1759 35.6687 22.5768 37.0231 25.0077 38.3413C26.0914 38.9459 27.199 39.472 28.2707 40.0888C28.7497 40.3669 29.7017 41.1409 30.2765 40.9957L29.8394 42.0841C28.8695 40.4878 26.9955 39.3692 25.5765 38.2143C23.8202 36.7793 22.0519 35.3684 20.2717 33.9817C16.859 31.297 13.1947 28.957 9.82386 26.2119C9.73899 26.1217 9.68195 26.0085 9.6597 25.8861C9.63746 25.7637 9.65098 25.6374 9.69859 25.5227C9.7462 25.4079 9.82588 25.3096 9.92786 25.2398C10.0298 25.17 10.1497 25.1317 10.2729 25.1295C12.1888 25.3835 13.8653 26.7379 15.5597 27.6268C17.6912 28.7575 19.8167 29.8882 21.9362 31.037C26.1273 33.2864 30.1747 35.7534 34.5095 37.6883L33.5576 37.9362C33.4848 38.1291 33.4702 38.3395 33.5156 38.5408C33.5156 38.5408 33.6294 38.6557 33.5156 38.5408C33.4019 38.4259 33.2642 38.299 33.1324 38.1841C32.7253 37.8334 32.3002 37.5129 31.8691 37.1924C30.4681 36.1464 29.0311 35.1427 27.5942 34.1692C24.3191 31.9138 21.0082 29.7128 17.6852 27.5179C16.6195 26.8165 15.5537 26.1151 14.476 25.4258C14.3328 25.339 14.2292 25.1986 14.1878 25.0352C14.1464 24.8718 14.1705 24.6984 14.2548 24.5528C14.3391 24.4071 14.4769 24.3009 14.6382 24.2572C14.7996 24.2135 14.9715 24.2358 15.1167 24.3193C19.218 26.4537 23.1875 28.8482 27.187 31.1761C29.1748 32.337 31.1686 33.4798 33.1265 34.6952C34.3659 35.4571 35.5873 36.5092 37.0062 36.8901L36.3297 38.0631C33.0307 35.4389 29.6419 32.9296 26.1932 30.5049C23.1995 28.4128 20.3017 25.6677 16.7572 24.6216L17.4577 23.7086C18.0923 24.9179 19.9125 25.3472 21.0501 25.9156C22.8762 26.8226 24.5946 27.9956 26.3369 29.0598C28.2169 30.2086 30.1149 31.3212 32.0069 32.4398C32.9409 32.9961 33.8749 33.5464 34.8089 34.0905C35.6711 34.5864 36.6051 35.2999 37.575 35.4692L36.8566 36.4064C36.4854 35.8805 36.0104 35.4379 35.4615 35.1064C34.8628 34.6468 34.264 34.1389 33.6653 33.6552C32.396 32.6152 31.0968 31.6235 29.7975 30.6319C27.5044 28.8542 25.307 26.6714 22.5469 25.6495L22.9481 24.6881C27.9355 28.2617 33.1265 31.4845 38.2636 34.8766L37.4553 35.6989C36.0423 33.8064 34.0545 32.2766 32.1925 30.8617C30.3304 29.4468 28.6001 28.2133 26.8039 26.8165C26.4866 26.5626 26.9176 25.9942 27.2409 26.2421L27.2889 26.0668Z"/><path fill="#E84C40" d="M-12.551 25.9035C-12.7665 24.3979 -11.1799 24.3616 -10.1021 24.5067C-8.09334 24.8169 -6.11294 25.2921 -4.18069 25.9277C-1.49838 26.7742 1.12406 27.8203 3.75249 28.83C6.27913 29.8035 8.68002 31.0612 11.3264 31.684L10.8175 32.8933C8.96144 31.8231 7.17124 30.6501 5.24932 29.6947C3.77644 28.9631 2.17781 28.1589 1.3336 26.6714C1.26519 26.5457 1.24755 26.3981 1.28437 26.2595C1.32119 26.1209 1.40963 26.002 1.53119 25.9277C2.26762 25.4682 3.21962 25.6314 4.00994 25.8491C5.10293 26.1713 6.16497 26.5922 7.1832 27.1068C8.04538 27.5119 8.8836 27.9654 9.76373 28.3161C11.2785 28.9208 12.9131 29.7491 14.5536 29.7794L14.2063 31.0975C12.5046 29.8517 10.7378 28.6991 8.91355 27.6449C7.55443 26.8528 5.84802 26.2784 4.88406 24.9723C4.82486 24.8676 4.79418 24.7489 4.79512 24.6283C4.79605 24.5077 4.82858 24.3895 4.8894 24.2857C4.95021 24.1819 5.03714 24.0962 5.14137 24.0373C5.24559 23.9785 5.36339 23.9485 5.48279 23.9505C7.21911 23.9505 8.85365 24.6035 10.4942 25.1054C11.1827 25.317 11.8773 25.5468 12.5718 25.7463C13.214 26.0146 13.9217 26.08 14.6015 25.9337L14.2662 27.2096C13.1406 25.7886 11.3923 25.0812 10.2726 23.6481C10.0032 23.3095 9.93137 22.6626 10.4283 22.4388C11.8234 21.8342 13.2304 22.1304 14.6194 22.6323C15.8828 23.0858 17.3975 23.9505 18.7806 23.624L18.2298 24.6035C18.0139 24.0075 17.6681 23.4681 17.2179 23.0253C16.9365 22.6626 17.2179 22.1788 17.4993 21.9491C18.7746 20.9695 20.5529 21.3444 21.9779 21.7193C23.4028 22.0942 25.1631 22.9286 26.6719 22.59L26.2168 23.7207C26.161 23.4952 26.0869 23.2748 25.9953 23.0616C25.9134 22.9783 25.8512 22.8773 25.8137 22.7661C25.7761 22.655 25.7641 22.5367 25.7785 22.4202C25.793 22.3036 25.8334 22.1919 25.8969 22.0936C25.9604 21.9952 26.0453 21.9127 26.145 21.8523C27.0311 21.2477 28.3723 21.7858 29.2524 22.1244C30.3078 22.6336 31.3936 23.0759 32.5035 23.4486L31.797 24.6579C30.9628 24.0358 30.1633 23.3677 29.4021 22.6565C29.3108 22.5591 29.2494 22.4371 29.2251 22.3053C29.2009 22.1735 29.215 22.0374 29.2656 21.9134C29.3162 21.7894 29.4012 21.6829 29.5104 21.6066C29.6196 21.5303 29.7484 21.4876 29.8811 21.4835C32.0545 21.5923 34.1141 22.6444 36.0061 23.6602C36.1104 23.7222 36.1969 23.8105 36.2569 23.9166C36.317 24.0226 36.3486 24.1427 36.3486 24.2649C36.3486 24.3871 36.317 24.5071 36.2569 24.6132C36.1969 24.7193 36.1104 24.8076 36.0061 24.8695C35.6565 25.1167 35.2348 25.2381 34.8086 25.2142C34.1441 25.2142 33.9465 24.1137 34.647 24.0049C34.7437 24.0049 34.8395 23.9857 34.9289 23.9484C35.0183 23.911 35.0995 23.8563 35.1679 23.7872L35.4732 24.9482C33.6291 24.2649 31.9227 22.8198 29.8751 22.8742L30.3541 21.7072C31.0786 22.457 32.0365 22.9165 32.8089 23.636C32.9114 23.7528 32.9747 23.8993 32.9895 24.0547C33.0044 24.21 32.9701 24.3661 32.8916 24.5005C32.8131 24.6349 32.6944 24.7407 32.5526 24.8026C32.4107 24.8646 32.2531 24.8796 32.1024 24.8454C31.158 24.5417 30.2357 24.1719 29.3422 23.7388C28.8213 23.5212 27.3844 22.7774 26.8874 23.1342L27.0431 21.9249C27.2481 22.2158 27.4095 22.5357 27.5221 22.8742C27.579 22.9764 27.6124 23.0903 27.6198 23.2073C27.6271 23.3244 27.6082 23.4416 27.5645 23.5503C27.5207 23.659 27.4533 23.7563 27.3672 23.835C27.281 23.9137 27.1785 23.9718 27.0671 24.0049C25.5702 24.404 23.9956 23.8537 22.5646 23.4365C21.4629 23.116 19.4871 22.2937 18.4333 23.1221V22.0035C18.9662 22.7351 19.5649 23.3398 19.7446 24.1863C19.7965 24.3898 19.7681 24.6058 19.6653 24.7885C19.5625 24.9713 19.3934 25.1066 19.1937 25.1658C17.7867 25.4863 16.4396 25.0026 15.1403 24.4947C13.9967 24.0472 12.4281 23.2309 11.1947 23.7751L11.3504 22.5658C12.5059 24.0472 14.344 24.7789 15.4517 26.2905C15.51 26.3912 15.5446 26.504 15.5529 26.6203C15.5612 26.7366 15.543 26.8533 15.4996 26.9613C15.4562 27.0694 15.3888 27.166 15.3027 27.2436C15.2165 27.3212 15.1139 27.3779 15.0026 27.4091C13.5836 27.8626 12.009 27.0947 10.6918 26.6593C9.01531 26.1212 7.273 25.2686 5.48279 25.311L6.08153 24.2891C6.61867 24.8309 7.26929 25.2441 7.98549 25.4984C8.75785 25.8733 9.50028 26.3026 10.2427 26.7077C11.9473 27.6441 13.568 28.7285 15.0865 29.9487C15.1822 30.0487 15.2469 30.1748 15.2726 30.3115C15.2983 30.4482 15.2838 30.5896 15.231 30.7181C15.1782 30.8466 15.0893 30.9567 14.9754 31.0348C14.8614 31.113 14.7273 31.1558 14.5895 31.158C13.1041 30.9565 11.6618 30.5091 10.3205 29.8338C9.38054 29.4347 8.45849 29.0235 7.54842 28.558C6.56514 28.0321 5.55373 27.5618 4.51885 27.1491C3.87222 26.9133 2.76457 26.4235 2.09399 26.8226L2.28559 26.0728C3.05796 27.4938 4.84813 28.1649 6.22521 28.8059C8.02141 29.6584 9.73977 30.7468 11.506 31.7082C12.1826 32.0831 11.7036 33.0747 10.9971 32.9175C8.72793 32.4399 6.63237 31.3454 4.51885 30.4263C2.22571 29.4347 -0.1213 28.5338 -2.46234 27.6752C-4.5579 26.9072 -6.65348 26.3207 -8.8149 25.7342C-9.47949 25.5528 -11.9642 24.5249 -12.0301 25.7886C-12.0301 26.0607 -12.4911 26.1575 -12.533 25.8551L-12.551 25.9035Z"/><path fill="#E84C40" d="M34.2452 40.0888C34.5565 40.2641 34.8439 40.4758 35.1313 40.6934C35.4299 40.8802 35.7495 41.0304 36.0833 41.1409L35.4845 41.9027C35.0475 40.9292 34.1613 40.2762 33.7781 39.2604C33.7447 39.1258 33.764 38.9833 33.832 38.8628C33.9001 38.7422 34.0116 38.6529 34.1434 38.6134C35.4965 38.1901 36.8077 39.1697 37.8256 39.9436C38.4243 40.4153 39.023 40.9111 39.6637 41.3585C40.1294 41.7669 40.6861 42.0553 41.2862 42.199L40.7833 43.0879C39.8074 41.413 38.101 40.4455 36.7838 39.085C36.6903 38.9894 36.6311 38.8651 36.6153 38.7317C36.5996 38.5983 36.6284 38.4634 36.6971 38.3483C36.7657 38.2332 36.8703 38.1445 36.9945 38.0961C37.1186 38.0478 37.2551 38.0426 37.3825 38.0813C39.7774 38.686 41.4838 40.7055 43.7051 41.7092L42.7412 42.453C42.3939 41.3585 41.2144 40.639 40.3043 40.0646C39.2386 39.3934 38.089 38.8553 37.0412 38.1539C36.9098 38.0697 36.8121 37.9412 36.7655 37.7913C36.7189 37.6413 36.7264 37.4795 36.7867 37.3346C36.8469 37.1896 36.9561 37.071 37.0947 36.9996C37.2334 36.9282 37.3926 36.9087 37.5442 36.9445C38.2567 37.1501 39.0769 37.6701 38.6757 38.5167C38.6051 38.617 38.5059 38.6931 38.3913 38.7349C38.2766 38.7767 38.1521 38.7823 38.0343 38.7507C37.9165 38.7192 37.8111 38.6521 37.732 38.5584C37.653 38.4647 37.6042 38.3489 37.592 38.2264C37.7836 38.4683 37.8136 38.5408 37.6998 38.4381C37.651 38.401 37.5989 38.3686 37.5442 38.3413C37.4342 38.2858 37.3174 38.2451 37.1969 38.2204L37.6998 37.0111C38.8973 37.7548 40.1426 38.3292 41.2922 39.079C42.4418 39.8288 43.6871 40.7539 43.9865 42.1023C44.0174 42.2288 44.0112 42.3616 43.9687 42.4846C43.9261 42.6075 43.849 42.7153 43.7468 42.7948C43.6446 42.8743 43.5217 42.9221 43.3931 42.9322C43.2645 42.9424 43.1357 42.9145 43.0225 42.852C41.0108 41.7274 39.3344 39.7925 37.0352 39.2241L37.634 38.2204C38.9991 39.605 40.9689 40.639 41.7951 42.453C41.8462 42.5547 41.8677 42.669 41.8571 42.7826C41.8466 42.8962 41.8045 43.0044 41.7356 43.0949C41.6667 43.1853 41.5739 43.2542 41.4679 43.2936C41.3619 43.333 41.2471 43.3414 41.1366 43.3176C39.8074 43.0335 38.7416 41.9753 37.6998 41.1409C37.1633 40.6876 36.5883 40.2829 35.9815 39.9316C35.757 39.7769 35.5043 39.6689 35.238 39.6139C34.9718 39.5589 34.6974 39.5579 34.4308 39.6111L34.796 38.9641C35.1373 39.8711 35.9935 40.4697 36.3707 41.3827C36.5263 41.7455 36.2569 42.326 35.7719 42.1446C35.0415 41.8544 34.5026 41.1651 33.826 40.766C33.753 40.7096 33.7028 40.6282 33.6849 40.5371C33.6671 40.446 33.6828 40.3515 33.7291 40.2713C33.7755 40.1911 33.8492 40.1307 33.9365 40.1015C34.0238 40.0724 34.1187 40.0764 34.2032 40.1129L34.2452 40.0888Z"/></g><defs><clipPath id="clip0_141_287"><rect width="100" height="47" fill="#fff" transform="matrix(-1 0 0 1 85 0)"/></clipPath></defs></svg>